<svg xmlns="http://www.w3.org/2000/svg" width="140" height="34" viewBox="0 0 140 34">
    <g fill="none" fill-rule="evenodd">
        <rect width="138" height="32" x="1" y="1" stroke="#EDF0F1" stroke-opacity=".502" stroke-width="2" rx="10"/>
        <path fill="#2B69B2" fill-rule="nonzero" d="M6.26 21.37l1.005-2.835h3.93l1.02 2.835h1.38L9.95 11.29H8.675L5 21.37h1.26zm4.53-3.96H7.655l1.53-4.35h.045l1.56 4.35zm6.66 4.095c.99 0 1.71-.3 2.145-.735h.075l.12.6h1.08V10.63h-1.275v3.6c-.39-.225-.99-.465-1.905-.465-1.905 0-3.315 1.185-3.315 3.9v.21c0 2.745 1.65 3.63 3.075 3.63zm.42-1.05c-1.29 0-2.16-.615-2.16-2.625v-.33c0-1.95.78-2.64 2.145-2.64.75 0 1.425.18 1.74.435v4.575c-.315.255-.9.585-1.725.585zm7.68 1.05c.99 0 1.71-.3 2.145-.735h.075l.12.6h1.08V10.63h-1.275v3.6c-.39-.225-.99-.465-1.905-.465-1.905 0-3.315 1.185-3.315 3.9v.21c0 2.745 1.65 3.63 3.075 3.63zm.42-1.05c-1.29 0-2.16-.615-2.16-2.625v-.33c0-1.95.78-2.64 2.145-2.64.75 0 1.425.18 1.74.435v4.575c-.315.255-.9.585-1.725.585zm11.385.99c.675 0 .975-.15 1.29-.285v-.87c-.3.075-.645.12-.945.12-.84 0-1.08-.27-1.08-.975V14.98h1.875v-1.065H36.62v-1.77h-1.275v1.77H34.28v1.065h1.065v4.635c0 1.32.825 1.83 2.01 1.83zm5.685.06c2.04 0 3.42-1.425 3.42-3.765v-.24c0-2.34-1.275-3.735-3.405-3.735-2.04 0-3.405 1.44-3.405 3.78v.255c0 2.325 1.245 3.705 3.39 3.705zm.03-1.05c-1.155 0-2.1-.615-2.1-2.625v-.42c0-1.665.75-2.595 2.055-2.595 1.155 0 2.1.645 2.1 2.655v.405c0 1.665-.75 2.58-2.055 2.58zm10.425.915v-4.665h4.845v4.665h1.32V11.29h-1.32v4.305h-4.845V11.29h-1.32v10.08h1.32zm11.34.135c2.04 0 3.42-1.425 3.42-3.765v-.24c0-2.34-1.275-3.735-3.405-3.735-2.04 0-3.405 1.44-3.405 3.78v.255c0 2.325 1.245 3.705 3.39 3.705zm.03-1.05c-1.155 0-2.1-.615-2.1-2.625v-.42c0-1.665.75-2.595 2.055-2.595 1.155 0 2.1.645 2.1 2.655v.405c0 1.665-.75 2.58-2.055 2.58zm6.225.915v-6c.54-.27 1.17-.495 1.77-.495.99 0 1.29.36 1.29 1.215v5.28h1.275v-5.55c0-.165-.015-.3-.03-.435.645-.315 1.26-.51 1.8-.51.99 0 1.305.36 1.305 1.215v5.28h1.26v-5.55c0-1.44-.75-2.055-2.055-2.055-.84 0-1.695.315-2.475.825h-.075c-.36-.555-.945-.825-1.785-.825-.825 0-1.635.36-2.265.795h-.075v-.645h-1.215v7.455h1.275zm13.755.135c1.23 0 2.085-.39 2.52-.72v-.945c-.675.36-1.32.57-2.31.57-1.485 0-2.355-.63-2.445-2.4h4.98v-.72c0-2.34-.975-3.525-3.015-3.525-1.74 0-3.285 1.17-3.285 3.765v.225c0 2.295 1.2 3.75 3.555 3.75zm1.395-4.53h-3.63c.12-1.71 1.065-2.175 1.905-2.175 1.125 0 1.725.615 1.725 2.175zm9.255 4.575c2.355 0 3.39-1.185 3.39-2.97 0-1.68-.93-2.355-2.415-2.835l-1.035-.345c-1.08-.36-1.38-.765-1.38-1.68 0-.93.66-1.47 1.815-1.47 1.095 0 1.905.27 2.505.54v-1.11c-.555-.285-1.245-.555-2.46-.555-2.115 0-3.195 1.125-3.195 2.715 0 1.56.825 2.295 2.175 2.745l1.05.345c1.17.405 1.59.81 1.59 1.755 0 1.065-.645 1.74-2.115 1.74-1.065 0-2.04-.255-2.82-.66v1.125c.675.375 1.62.66 2.895.66zm8.025-.045c1.035 0 1.71-.27 2.205-.585V19.9c-.39.18-1.065.525-2.07.525-1.5 0-2.28-.795-2.28-2.655v-.39c0-1.635.81-2.52 2.13-2.52.99 0 1.455.18 2.115.465V14.26c-.495-.3-1.065-.495-2.025-.495-1.965 0-3.54 1.17-3.54 3.795v.255c0 2.49 1.35 3.69 3.465 3.69zm4.905-.135v-5.82c.525-.345 1.23-.57 1.935-.57.12 0 .36.015.57.045v-1.14c-.075-.03-.285-.06-.465-.06-.81 0-1.62.42-2.025.915h-.075v-.825h-1.215v7.455h1.275zm6.915.135c1.23 0 2.085-.39 2.52-.72v-.945c-.675.36-1.32.57-2.31.57-1.485 0-2.355-.63-2.445-2.4h4.98v-.72c0-2.34-.975-3.525-3.015-3.525-1.74 0-3.285 1.17-3.285 3.765v.225c0 2.295 1.2 3.75 3.555 3.75zm1.395-4.53h-3.63c.12-1.71 1.065-2.175 1.905-2.175 1.125 0 1.725.615 1.725 2.175zm6.015 4.53c1.23 0 2.085-.39 2.52-.72v-.945c-.675.36-1.32.57-2.31.57-1.485 0-2.355-.63-2.445-2.4h4.98v-.72c0-2.34-.975-3.525-3.015-3.525-1.74 0-3.285 1.17-3.285 3.765v.225c0 2.295 1.2 3.75 3.555 3.75zm1.395-4.53h-3.63c.12-1.71 1.065-2.175 1.905-2.175 1.125 0 1.725.615 1.725 2.175zm4.2 4.395v-6c.54-.255 1.305-.495 1.965-.495 1.17 0 1.455.36 1.455 1.215v5.28h1.26v-5.55c0-1.44-.69-2.055-2.16-2.055-.915 0-1.875.345-2.505.795h-.075v-.645h-1.215v7.455h1.275z"/>
    </g>
</svg>
