<svg xmlns="http://www.w3.org/2000/svg" width="66" height="66" viewBox="0 0 66 66">
    <g fill="none" fill-rule="evenodd">
        <path stroke="#A6D864" stroke-opacity=".493" stroke-width="4" d="M29 60C11.88 60-2 46.12-2 29-2 11.88 11.88-2 29-2c17.12 0 31 13.88 31 31 0 17.12-13.88 31-31 31z" transform="translate(4 4)"/>
        <path fill="#A6D864" fill-rule="nonzero" d="M18 36.52C18 42.916 23.093 48 29.5 48S41 42.916 41 36.52v-6.56H18v6.56zm18.236-19.025l2.793-2.788c.363-.363.363-.95 0-1.312-.363-.363-.952-.363-1.315 0l-3.121 3.116c-1.479-.82-3.286-1.312-5.093-1.312s-3.614.492-5.093 1.148l-3.079-3.074c-.364-.364-.955-.364-1.319 0l-.038.04c-.369.414-.35 1.044.043 1.436l2.75 2.746C19.807 19.463 18 22.907 18 26.679v1.64h23v-1.64c0-3.772-1.807-7.216-4.764-9.184zM24.57 25.039c-.985 0-1.642-.656-1.642-1.64 0-.984.657-1.64 1.642-1.64.986 0 1.643.656 1.643 1.64 0 .984-.657 1.64-1.643 1.64zm9.858 0c-.986 0-1.643-.656-1.643-1.64 0-.984.657-1.64 1.643-1.64.985 0 1.642.656 1.642 1.64 0 .984-.657 1.64-1.642 1.64z" transform="translate(4 4)"/>
    </g>
</svg>
