<svg xmlns="http://www.w3.org/2000/svg" width="32" height="34" viewBox="0 0 32 34">
    <g fill="none" fill-rule="evenodd">
        <rect width="30" height="32" x="1" y="1" stroke="#EDF0F1" stroke-opacity=".502" stroke-width="2" rx="10"/>
        <path fill="#2B69B2" fill-rule="nonzero" d="M14.405 16.141c0 .555.152.992.455 1.313.303.32.758.481 1.365.481.624 0 1.088-.16 1.391-.481.303-.32.455-.758.455-1.313 0-.555-.152-.988-.455-1.3-.303-.312-.767-.468-1.391-.468-.607 0-1.062.156-1.365.468-.303.312-.455.745-.455 1.3zm0 5.72c0 .555.152.992.455 1.313.303.32.758.481 1.365.481.624 0 1.088-.16 1.391-.481.303-.32.455-.758.455-1.313 0-.555-.152-.988-.455-1.3-.303-.312-.767-.468-1.391-.468-.607 0-1.062.156-1.365.468-.303.312-.455.745-.455 1.3zm0-11.414c0 .555.152.992.455 1.313.303.32.758.481 1.365.481.624 0 1.088-.16 1.391-.481.303-.32.455-.758.455-1.313 0-.555-.152-.988-.455-1.3-.303-.312-.767-.468-1.391-.468-.607 0-1.062.156-1.365.468-.303.312-.455.745-.455 1.3z"/>
    </g>
</svg>
