<svg xmlns="http://www.w3.org/2000/svg" width="32" height="34" viewBox="0 0 32 34">
    <g fill="none" fill-rule="evenodd">
        <rect width="30" height="32" x="1" y="1" stroke="#EDF0F1" stroke-opacity=".502" stroke-width="2" rx="10"/>
        <path fill="#2B69B2" fill-rule="nonzero" d="M9 17.993c0 .311.074.557.222.737.091.111.21.188.359.23.091.027 12.407.04 12.52.04.304 0 .53-.09.677-.27.148-.18.222-.426.222-.737 0-.312-.074-.555-.222-.73-.147-.175-.373-.263-.677-.263-.1 0-12.405.01-12.488.03-.163.039-.293.117-.391.233-.148.175-.222.418-.222.73zm0 6.2c0 .312.074.558.222.738.087.107.2.182.34.225.096.03 12.418.045 12.539.045.304 0 .53-.09.677-.27.148-.18.222-.426.222-.737 0-.312-.074-.555-.222-.73-.147-.175-.373-.263-.677-.263-.101 0-12.408.01-12.492.03-.161.04-.29.118-.387.233-.148.175-.222.418-.222.73zm0-12.2c0 .311.074.557.222.737.083.101.19.174.32.218.1.035 12.43.052 12.559.052.304 0 .53-.09.677-.27.148-.18.222-.426.222-.737 0-.312-.074-.555-.222-.73-.147-.175-.373-.263-.677-.263-.132 0-12.462.017-12.564.052-.128.043-.233.113-.315.21-.148.176-.222.42-.222.73z"/>
    </g>
</svg>
